<mxfile host="Electron" modified="2023-07-27T08:20:54.639Z" agent="Mozilla/5.0 (Macintosh; Intel Mac OS X 10_15_7) AppleWebKit/537.36 (KHTML, like Gecko) draw.io/21.6.1 Chrome/112.0.5615.204 Electron/24.6.1 Safari/537.36" etag="VWfyki3fzSnVskv789mX" version="21.6.1" type="device">
  <diagram name="Page-1" id="2SSC2NYHBqhAjkido76S">
    <mxGraphModel dx="848" dy="792" grid="1" gridSize="10" guides="1" tooltips="1" connect="1" arrows="1" fold="1" page="1" pageScale="1" pageWidth="850" pageHeight="1100" math="0" shadow="0">
      <root>
        <mxCell id="0" />
        <mxCell id="1" parent="0" />
        <mxCell id="81ppOUsdeJMzFXG5UMjV-63" style="rounded=0;hachureGap=4;jiggle=2;curveFitting=1;orthogonalLoop=1;jettySize=auto;html=1;exitX=0.25;exitY=1;exitDx=0;exitDy=0;entryX=0.5;entryY=0;entryDx=0;entryDy=0;fontFamily=Courier New;fontSource=https%3A%2F%2Ffonts.googleapis.com%2Fcss%3Ffamily%3DArchitects%2BDaughter;fontSize=16;fontColor=default;endArrow=none;endFill=0;" parent="1" source="81ppOUsdeJMzFXG5UMjV-3" target="81ppOUsdeJMzFXG5UMjV-61" edge="1">
          <mxGeometry relative="1" as="geometry" />
        </mxCell>
        <mxCell id="81ppOUsdeJMzFXG5UMjV-103" style="edgeStyle=none;shape=connector;rounded=0;hachureGap=4;jiggle=2;curveFitting=1;orthogonalLoop=1;jettySize=auto;html=1;exitX=0;exitY=0.25;exitDx=0;exitDy=0;entryX=1;entryY=1;entryDx=0;entryDy=0;labelBackgroundColor=default;strokeColor=default;fontFamily=Courier New;fontSource=https%3A%2F%2Ffonts.googleapis.com%2Fcss%3Ffamily%3DArchitects%2BDaughter;fontSize=16;fontColor=default;endArrow=none;endFill=0;" parent="1" source="81ppOUsdeJMzFXG5UMjV-3" target="81ppOUsdeJMzFXG5UMjV-13" edge="1">
          <mxGeometry relative="1" as="geometry" />
        </mxCell>
        <mxCell id="81ppOUsdeJMzFXG5UMjV-107" style="edgeStyle=none;shape=connector;rounded=0;hachureGap=4;jiggle=2;curveFitting=1;orthogonalLoop=1;jettySize=auto;html=1;exitX=1;exitY=0.25;exitDx=0;exitDy=0;entryX=0;entryY=1;entryDx=0;entryDy=0;labelBackgroundColor=default;strokeColor=default;fontFamily=Courier New;fontSource=https%3A%2F%2Ffonts.googleapis.com%2Fcss%3Ffamily%3DArchitects%2BDaughter;fontSize=16;fontColor=default;endArrow=none;endFill=0;" parent="1" source="81ppOUsdeJMzFXG5UMjV-3" target="81ppOUsdeJMzFXG5UMjV-18" edge="1">
          <mxGeometry relative="1" as="geometry" />
        </mxCell>
        <mxCell id="81ppOUsdeJMzFXG5UMjV-109" style="edgeStyle=none;shape=connector;rounded=0;hachureGap=4;jiggle=2;curveFitting=1;orthogonalLoop=1;jettySize=auto;html=1;exitX=1;exitY=0.5;exitDx=0;exitDy=0;entryX=0;entryY=0;entryDx=0;entryDy=0;labelBackgroundColor=default;strokeColor=default;fontFamily=Courier New;fontSource=https%3A%2F%2Ffonts.googleapis.com%2Fcss%3Ffamily%3DArchitects%2BDaughter;fontSize=16;fontColor=default;endArrow=none;endFill=0;strokeWidth=4;" parent="1" source="81ppOUsdeJMzFXG5UMjV-3" target="81ppOUsdeJMzFXG5UMjV-15" edge="1">
          <mxGeometry relative="1" as="geometry" />
        </mxCell>
        <mxCell id="81ppOUsdeJMzFXG5UMjV-111" style="edgeStyle=none;shape=connector;rounded=0;hachureGap=4;jiggle=2;curveFitting=1;orthogonalLoop=1;jettySize=auto;html=1;exitX=1;exitY=0.75;exitDx=0;exitDy=0;entryX=0;entryY=0;entryDx=0;entryDy=0;labelBackgroundColor=default;strokeColor=default;fontFamily=Courier New;fontSource=https%3A%2F%2Ffonts.googleapis.com%2Fcss%3Ffamily%3DArchitects%2BDaughter;fontSize=16;fontColor=default;endArrow=none;endFill=0;" parent="1" source="81ppOUsdeJMzFXG5UMjV-3" target="81ppOUsdeJMzFXG5UMjV-16" edge="1">
          <mxGeometry relative="1" as="geometry" />
        </mxCell>
        <mxCell id="81ppOUsdeJMzFXG5UMjV-120" style="edgeStyle=none;shape=connector;rounded=0;hachureGap=4;jiggle=2;curveFitting=1;orthogonalLoop=1;jettySize=auto;html=1;exitX=0;exitY=0.75;exitDx=0;exitDy=0;entryX=1;entryY=0;entryDx=0;entryDy=0;labelBackgroundColor=default;strokeColor=default;fontFamily=Courier New;fontSource=https%3A%2F%2Ffonts.googleapis.com%2Fcss%3Ffamily%3DArchitects%2BDaughter;fontSize=16;fontColor=default;endArrow=none;endFill=0;" parent="1" source="81ppOUsdeJMzFXG5UMjV-3" target="81ppOUsdeJMzFXG5UMjV-14" edge="1">
          <mxGeometry relative="1" as="geometry" />
        </mxCell>
        <mxCell id="81ppOUsdeJMzFXG5UMjV-3" value="Customers" style="rounded=0;whiteSpace=wrap;html=1;hachureGap=4;curveFitting=1;fontFamily=Courier New;fontSize=16;" parent="1" vertex="1">
          <mxGeometry x="360" y="427.5" width="100" height="40" as="geometry" />
        </mxCell>
        <mxCell id="81ppOUsdeJMzFXG5UMjV-105" style="edgeStyle=none;shape=connector;rounded=0;hachureGap=4;jiggle=2;curveFitting=1;orthogonalLoop=1;jettySize=auto;html=1;exitX=0;exitY=0.5;exitDx=0;exitDy=0;entryX=1;entryY=0;entryDx=0;entryDy=0;labelBackgroundColor=default;strokeColor=default;fontFamily=Courier New;fontSource=https%3A%2F%2Ffonts.googleapis.com%2Fcss%3Ffamily%3DArchitects%2BDaughter;fontSize=16;fontColor=default;endArrow=classic;endFill=1;strokeWidth=4;startArrow=none;startFill=0;" parent="1" source="81ppOUsdeJMzFXG5UMjV-4" target="81ppOUsdeJMzFXG5UMjV-19" edge="1">
          <mxGeometry relative="1" as="geometry" />
        </mxCell>
        <mxCell id="81ppOUsdeJMzFXG5UMjV-4" value="FoodEstablishment" style="rounded=0;whiteSpace=wrap;html=1;hachureGap=4;curveFitting=1;strokeColor=default;fontFamily=Courier New;fontSize=16;fontColor=default;fillColor=default;strokeWidth=4;" parent="1" vertex="1">
          <mxGeometry x="260" y="220" width="190" height="40" as="geometry" />
        </mxCell>
        <mxCell id="81ppOUsdeJMzFXG5UMjV-5" value="Events" style="rounded=0;whiteSpace=wrap;html=1;hachureGap=4;curveFitting=1;strokeColor=default;fontFamily=Courier New;fontSize=16;fontColor=default;fillColor=default;" parent="1" vertex="1">
          <mxGeometry x="658.75" y="230" width="80" height="40" as="geometry" />
        </mxCell>
        <mxCell id="cLConAzINVmgi7hrMVg2-11" style="edgeStyle=none;shape=connector;rounded=0;hachureGap=4;jiggle=2;curveFitting=1;orthogonalLoop=1;jettySize=auto;html=1;exitX=0.25;exitY=1;exitDx=0;exitDy=0;entryX=0.5;entryY=0;entryDx=0;entryDy=0;labelBackgroundColor=default;strokeColor=default;fontFamily=Architects Daughter;fontSource=https%3A%2F%2Ffonts.googleapis.com%2Fcss%3Ffamily%3DArchitects%2BDaughter;fontSize=16;fontColor=default;endArrow=none;endFill=0;" parent="1" source="81ppOUsdeJMzFXG5UMjV-6" target="cLConAzINVmgi7hrMVg2-10" edge="1">
          <mxGeometry relative="1" as="geometry" />
        </mxCell>
        <mxCell id="81ppOUsdeJMzFXG5UMjV-6" value="Corporation" style="rounded=0;whiteSpace=wrap;html=1;hachureGap=4;curveFitting=1;strokeColor=default;fontFamily=Courier New;fontSize=16;fontColor=default;fillColor=default;" parent="1" vertex="1">
          <mxGeometry x="25" y="180" width="130" height="40" as="geometry" />
        </mxCell>
        <mxCell id="81ppOUsdeJMzFXG5UMjV-118" style="edgeStyle=none;shape=connector;rounded=0;hachureGap=4;jiggle=2;curveFitting=1;orthogonalLoop=1;jettySize=auto;html=1;exitX=0.25;exitY=1;exitDx=0;exitDy=0;entryX=1;entryY=0;entryDx=0;entryDy=0;labelBackgroundColor=default;strokeColor=default;fontFamily=Courier New;fontSource=https%3A%2F%2Ffonts.googleapis.com%2Fcss%3Ffamily%3DArchitects%2BDaughter;fontSize=16;fontColor=default;endArrow=none;endFill=0;strokeWidth=4;" parent="1" source="81ppOUsdeJMzFXG5UMjV-7" target="81ppOUsdeJMzFXG5UMjV-21" edge="1">
          <mxGeometry relative="1" as="geometry" />
        </mxCell>
        <mxCell id="cLConAzINVmgi7hrMVg2-4" style="edgeStyle=none;shape=connector;rounded=0;hachureGap=4;jiggle=2;curveFitting=1;orthogonalLoop=1;jettySize=auto;html=1;exitX=0;exitY=0.75;exitDx=0;exitDy=0;entryX=0.5;entryY=0;entryDx=0;entryDy=0;labelBackgroundColor=default;strokeColor=default;fontFamily=Architects Daughter;fontSource=https%3A%2F%2Ffonts.googleapis.com%2Fcss%3Ffamily%3DArchitects%2BDaughter;fontSize=16;fontColor=default;endArrow=none;endFill=0;" parent="1" source="81ppOUsdeJMzFXG5UMjV-7" target="cLConAzINVmgi7hrMVg2-3" edge="1">
          <mxGeometry relative="1" as="geometry" />
        </mxCell>
        <mxCell id="81ppOUsdeJMzFXG5UMjV-7" value="Games" style="rounded=0;whiteSpace=wrap;html=1;hachureGap=4;curveFitting=1;strokeColor=default;fontFamily=Courier New;fontSize=16;fontColor=default;fillColor=default;" parent="1" vertex="1">
          <mxGeometry x="75" y="672.5" width="80" height="40" as="geometry" />
        </mxCell>
        <mxCell id="81ppOUsdeJMzFXG5UMjV-113" style="edgeStyle=none;shape=connector;rounded=0;hachureGap=4;jiggle=2;curveFitting=1;orthogonalLoop=1;jettySize=auto;html=1;exitX=0.75;exitY=1;exitDx=0;exitDy=0;entryX=0;entryY=0;entryDx=0;entryDy=0;labelBackgroundColor=default;strokeColor=default;fontFamily=Courier New;fontSource=https%3A%2F%2Ffonts.googleapis.com%2Fcss%3Ffamily%3DArchitects%2BDaughter;fontSize=16;fontColor=default;endArrow=none;endFill=0;" parent="1" source="81ppOUsdeJMzFXG5UMjV-8" target="81ppOUsdeJMzFXG5UMjV-17" edge="1">
          <mxGeometry relative="1" as="geometry" />
        </mxCell>
        <mxCell id="81ppOUsdeJMzFXG5UMjV-115" style="edgeStyle=none;shape=connector;rounded=0;hachureGap=4;jiggle=2;curveFitting=1;orthogonalLoop=1;jettySize=auto;html=1;exitX=0;exitY=0.75;exitDx=0;exitDy=0;entryX=1;entryY=0;entryDx=0;entryDy=0;labelBackgroundColor=default;strokeColor=default;fontFamily=Courier New;fontSource=https%3A%2F%2Ffonts.googleapis.com%2Fcss%3Ffamily%3DArchitects%2BDaughter;fontSize=16;fontColor=default;endArrow=none;endFill=0;" parent="1" source="81ppOUsdeJMzFXG5UMjV-8" target="81ppOUsdeJMzFXG5UMjV-24" edge="1">
          <mxGeometry relative="1" as="geometry" />
        </mxCell>
        <mxCell id="81ppOUsdeJMzFXG5UMjV-8" value="Employees" style="rounded=0;whiteSpace=wrap;html=1;hachureGap=4;curveFitting=1;strokeColor=default;fontFamily=Courier New;fontSize=16;fontColor=default;fillColor=default;" parent="1" vertex="1">
          <mxGeometry x="310" y="707.5" width="110" height="40" as="geometry" />
        </mxCell>
        <mxCell id="81ppOUsdeJMzFXG5UMjV-86" style="edgeStyle=none;shape=connector;rounded=0;hachureGap=4;jiggle=2;curveFitting=1;orthogonalLoop=1;jettySize=auto;html=1;exitX=0.5;exitY=1;exitDx=0;exitDy=0;entryX=1;entryY=0.5;entryDx=0;entryDy=0;labelBackgroundColor=default;strokeColor=default;fontFamily=Courier New;fontSource=https%3A%2F%2Ffonts.googleapis.com%2Fcss%3Ffamily%3DArchitects%2BDaughter;fontSize=16;fontColor=default;endArrow=none;endFill=0;" parent="1" source="81ppOUsdeJMzFXG5UMjV-9" target="81ppOUsdeJMzFXG5UMjV-23" edge="1">
          <mxGeometry relative="1" as="geometry" />
        </mxCell>
        <mxCell id="81ppOUsdeJMzFXG5UMjV-9" value="Attractions" style="rounded=0;whiteSpace=wrap;html=1;hachureGap=4;curveFitting=1;strokeColor=default;fontFamily=Courier New;fontSize=16;fontColor=default;fillColor=default;" parent="1" vertex="1">
          <mxGeometry x="592.5" y="727.5" width="130" height="40" as="geometry" />
        </mxCell>
        <mxCell id="81ppOUsdeJMzFXG5UMjV-80" style="edgeStyle=none;shape=connector;rounded=0;hachureGap=4;jiggle=2;curveFitting=1;orthogonalLoop=1;jettySize=auto;html=1;exitX=0.25;exitY=1;exitDx=0;exitDy=0;entryX=1;entryY=0;entryDx=0;entryDy=0;labelBackgroundColor=default;strokeColor=default;fontFamily=Courier New;fontSource=https%3A%2F%2Ffonts.googleapis.com%2Fcss%3Ffamily%3DArchitects%2BDaughter;fontSize=16;fontColor=default;endArrow=none;endFill=0;" parent="1" source="81ppOUsdeJMzFXG5UMjV-10" target="81ppOUsdeJMzFXG5UMjV-50" edge="1">
          <mxGeometry relative="1" as="geometry" />
        </mxCell>
        <mxCell id="81ppOUsdeJMzFXG5UMjV-81" style="edgeStyle=none;shape=connector;rounded=0;hachureGap=4;jiggle=2;curveFitting=1;orthogonalLoop=1;jettySize=auto;html=1;exitX=0.5;exitY=1;exitDx=0;exitDy=0;entryX=0.5;entryY=0;entryDx=0;entryDy=0;labelBackgroundColor=default;strokeColor=default;fontFamily=Courier New;fontSource=https%3A%2F%2Ffonts.googleapis.com%2Fcss%3Ffamily%3DArchitects%2BDaughter;fontSize=16;fontColor=default;endArrow=none;endFill=0;" parent="1" source="81ppOUsdeJMzFXG5UMjV-10" target="81ppOUsdeJMzFXG5UMjV-51" edge="1">
          <mxGeometry relative="1" as="geometry" />
        </mxCell>
        <mxCell id="81ppOUsdeJMzFXG5UMjV-82" style="edgeStyle=none;shape=connector;rounded=0;hachureGap=4;jiggle=2;curveFitting=1;orthogonalLoop=1;jettySize=auto;html=1;exitX=0.75;exitY=1;exitDx=0;exitDy=0;labelBackgroundColor=default;strokeColor=default;fontFamily=Courier New;fontSource=https%3A%2F%2Ffonts.googleapis.com%2Fcss%3Ffamily%3DArchitects%2BDaughter;fontSize=16;fontColor=default;endArrow=none;endFill=0;" parent="1" source="81ppOUsdeJMzFXG5UMjV-10" target="81ppOUsdeJMzFXG5UMjV-52" edge="1">
          <mxGeometry relative="1" as="geometry" />
        </mxCell>
        <mxCell id="81ppOUsdeJMzFXG5UMjV-10" value="Passes" style="rounded=0;whiteSpace=wrap;html=1;hachureGap=4;curveFitting=1;strokeColor=default;fontFamily=Courier New;fontSize=16;fontColor=default;fillColor=default;" parent="1" vertex="1">
          <mxGeometry x="700" y="467.5" width="90" height="40" as="geometry" />
        </mxCell>
        <mxCell id="81ppOUsdeJMzFXG5UMjV-90" style="edgeStyle=none;shape=connector;rounded=0;hachureGap=4;jiggle=2;curveFitting=1;orthogonalLoop=1;jettySize=auto;html=1;exitX=0.5;exitY=1;exitDx=0;exitDy=0;entryX=0.5;entryY=0;entryDx=0;entryDy=0;labelBackgroundColor=default;strokeColor=default;fontFamily=Courier New;fontSource=https%3A%2F%2Ffonts.googleapis.com%2Fcss%3Ffamily%3DArchitects%2BDaughter;fontSize=16;fontColor=default;endArrow=none;endFill=0;" parent="1" source="81ppOUsdeJMzFXG5UMjV-11" target="81ppOUsdeJMzFXG5UMjV-47" edge="1">
          <mxGeometry relative="1" as="geometry" />
        </mxCell>
        <mxCell id="81ppOUsdeJMzFXG5UMjV-91" style="edgeStyle=none;shape=connector;rounded=0;hachureGap=4;jiggle=2;curveFitting=1;orthogonalLoop=1;jettySize=auto;html=1;exitX=0;exitY=0.5;exitDx=0;exitDy=0;entryX=1;entryY=0;entryDx=0;entryDy=0;labelBackgroundColor=default;strokeColor=default;fontFamily=Courier New;fontSource=https%3A%2F%2Ffonts.googleapis.com%2Fcss%3Ffamily%3DArchitects%2BDaughter;fontSize=16;fontColor=default;endArrow=none;endFill=0;" parent="1" source="81ppOUsdeJMzFXG5UMjV-11" target="81ppOUsdeJMzFXG5UMjV-48" edge="1">
          <mxGeometry relative="1" as="geometry" />
        </mxCell>
        <mxCell id="81ppOUsdeJMzFXG5UMjV-11" value="Rides" style="rounded=0;whiteSpace=wrap;html=1;hachureGap=4;curveFitting=1;strokeColor=default;fontFamily=Courier New;fontSize=16;fontColor=default;fillColor=default;" parent="1" vertex="1">
          <mxGeometry x="545" y="910" width="80" height="40" as="geometry" />
        </mxCell>
        <mxCell id="81ppOUsdeJMzFXG5UMjV-89" style="edgeStyle=none;shape=connector;rounded=0;hachureGap=4;jiggle=2;curveFitting=1;orthogonalLoop=1;jettySize=auto;html=1;exitX=0.5;exitY=1;exitDx=0;exitDy=0;entryX=0.5;entryY=0;entryDx=0;entryDy=0;labelBackgroundColor=default;strokeColor=default;fontFamily=Courier New;fontSource=https%3A%2F%2Ffonts.googleapis.com%2Fcss%3Ffamily%3DArchitects%2BDaughter;fontSize=16;fontColor=default;endArrow=none;endFill=0;" parent="1" source="81ppOUsdeJMzFXG5UMjV-12" target="81ppOUsdeJMzFXG5UMjV-49" edge="1">
          <mxGeometry relative="1" as="geometry" />
        </mxCell>
        <mxCell id="81ppOUsdeJMzFXG5UMjV-12" value="Activities" style="rounded=0;whiteSpace=wrap;html=1;hachureGap=4;curveFitting=1;strokeColor=default;fontFamily=Courier New;fontSize=16;fontColor=default;fillColor=default;" parent="1" vertex="1">
          <mxGeometry x="670" y="910" width="120" height="40" as="geometry" />
        </mxCell>
        <mxCell id="81ppOUsdeJMzFXG5UMjV-71" style="edgeStyle=none;shape=connector;rounded=0;hachureGap=4;jiggle=2;curveFitting=1;orthogonalLoop=1;jettySize=auto;html=1;exitX=0;exitY=1;exitDx=0;exitDy=0;entryX=1;entryY=0.5;entryDx=0;entryDy=0;labelBackgroundColor=default;strokeColor=default;fontFamily=Courier New;fontSource=https%3A%2F%2Ffonts.googleapis.com%2Fcss%3Ffamily%3DArchitects%2BDaughter;fontSize=16;fontColor=default;endArrow=none;endFill=0;" parent="1" source="81ppOUsdeJMzFXG5UMjV-13" target="81ppOUsdeJMzFXG5UMjV-29" edge="1">
          <mxGeometry relative="1" as="geometry" />
        </mxCell>
        <mxCell id="81ppOUsdeJMzFXG5UMjV-104" style="edgeStyle=none;shape=connector;rounded=0;hachureGap=4;jiggle=2;curveFitting=1;orthogonalLoop=1;jettySize=auto;html=1;exitX=1;exitY=0;exitDx=0;exitDy=0;entryX=0.5;entryY=1;entryDx=0;entryDy=0;labelBackgroundColor=default;strokeColor=default;fontFamily=Courier New;fontSource=https%3A%2F%2Ffonts.googleapis.com%2Fcss%3Ffamily%3DArchitects%2BDaughter;fontSize=16;fontColor=default;endArrow=none;endFill=0;" parent="1" source="81ppOUsdeJMzFXG5UMjV-13" target="81ppOUsdeJMzFXG5UMjV-4" edge="1">
          <mxGeometry relative="1" as="geometry" />
        </mxCell>
        <mxCell id="81ppOUsdeJMzFXG5UMjV-13" value="EatAt" style="rhombus;whiteSpace=wrap;html=1;rounded=0;hachureGap=4;curveFitting=1;strokeColor=default;fontFamily=Courier New;fontSize=16;fontColor=default;fillColor=default;" parent="1" vertex="1">
          <mxGeometry x="215" y="350" width="90" height="60" as="geometry" />
        </mxCell>
        <mxCell id="81ppOUsdeJMzFXG5UMjV-121" style="edgeStyle=none;shape=connector;rounded=0;hachureGap=4;jiggle=2;curveFitting=1;orthogonalLoop=1;jettySize=auto;html=1;exitX=0;exitY=1;exitDx=0;exitDy=0;entryX=1;entryY=0.5;entryDx=0;entryDy=0;labelBackgroundColor=default;strokeColor=default;fontFamily=Courier New;fontSource=https%3A%2F%2Ffonts.googleapis.com%2Fcss%3Ffamily%3DArchitects%2BDaughter;fontSize=16;fontColor=default;endArrow=none;endFill=0;" parent="1" source="81ppOUsdeJMzFXG5UMjV-14" target="81ppOUsdeJMzFXG5UMjV-7" edge="1">
          <mxGeometry relative="1" as="geometry" />
        </mxCell>
        <mxCell id="81ppOUsdeJMzFXG5UMjV-14" value="Play" style="rhombus;whiteSpace=wrap;html=1;rounded=0;hachureGap=4;curveFitting=1;strokeColor=default;fontFamily=Courier New;fontSize=16;fontColor=default;fillColor=default;" parent="1" vertex="1">
          <mxGeometry x="210" y="510" width="90" height="60" as="geometry" />
        </mxCell>
        <mxCell id="81ppOUsdeJMzFXG5UMjV-110" style="edgeStyle=none;shape=connector;rounded=0;hachureGap=4;jiggle=2;curveFitting=1;orthogonalLoop=1;jettySize=auto;html=1;exitX=1;exitY=1;exitDx=0;exitDy=0;entryX=0;entryY=0.5;entryDx=0;entryDy=0;labelBackgroundColor=default;strokeColor=default;fontFamily=Courier New;fontSource=https%3A%2F%2Ffonts.googleapis.com%2Fcss%3Ffamily%3DArchitects%2BDaughter;fontSize=16;fontColor=default;endArrow=none;endFill=0;startArrow=classic;startFill=1;" parent="1" source="81ppOUsdeJMzFXG5UMjV-15" target="81ppOUsdeJMzFXG5UMjV-10" edge="1">
          <mxGeometry relative="1" as="geometry" />
        </mxCell>
        <mxCell id="81ppOUsdeJMzFXG5UMjV-15" value="Purchase" style="rhombus;whiteSpace=wrap;html=1;rounded=0;hachureGap=4;curveFitting=1;strokeColor=default;fontFamily=Courier New;fontSize=16;fontColor=default;fillColor=default;" parent="1" vertex="1">
          <mxGeometry x="515" y="427.5" width="110" height="70" as="geometry" />
        </mxCell>
        <mxCell id="81ppOUsdeJMzFXG5UMjV-112" style="edgeStyle=none;shape=connector;rounded=0;hachureGap=4;jiggle=2;curveFitting=1;orthogonalLoop=1;jettySize=auto;html=1;exitX=1;exitY=1;exitDx=0;exitDy=0;entryX=0.5;entryY=0;entryDx=0;entryDy=0;labelBackgroundColor=default;strokeColor=default;fontFamily=Courier New;fontSource=https%3A%2F%2Ffonts.googleapis.com%2Fcss%3Ffamily%3DArchitects%2BDaughter;fontSize=16;fontColor=default;endArrow=none;endFill=0;" parent="1" source="81ppOUsdeJMzFXG5UMjV-16" target="81ppOUsdeJMzFXG5UMjV-9" edge="1">
          <mxGeometry relative="1" as="geometry" />
        </mxCell>
        <mxCell id="81ppOUsdeJMzFXG5UMjV-16" value="Visit" style="rhombus;whiteSpace=wrap;html=1;rounded=0;hachureGap=4;curveFitting=1;strokeColor=default;fontFamily=Courier New;fontSize=16;fontColor=default;fillColor=default;" parent="1" vertex="1">
          <mxGeometry x="500" y="550" width="90" height="65" as="geometry" />
        </mxCell>
        <mxCell id="81ppOUsdeJMzFXG5UMjV-114" style="edgeStyle=none;shape=connector;rounded=0;hachureGap=4;jiggle=2;curveFitting=1;orthogonalLoop=1;jettySize=auto;html=1;exitX=1;exitY=0;exitDx=0;exitDy=0;entryX=0;entryY=0.5;entryDx=0;entryDy=0;labelBackgroundColor=default;strokeColor=default;fontFamily=Courier New;fontSource=https%3A%2F%2Ffonts.googleapis.com%2Fcss%3Ffamily%3DArchitects%2BDaughter;fontSize=16;fontColor=default;endArrow=none;endFill=0;strokeWidth=4;" parent="1" source="81ppOUsdeJMzFXG5UMjV-17" target="81ppOUsdeJMzFXG5UMjV-9" edge="1">
          <mxGeometry relative="1" as="geometry" />
        </mxCell>
        <mxCell id="81ppOUsdeJMzFXG5UMjV-17" value="Operate" style="rhombus;whiteSpace=wrap;html=1;rounded=0;hachureGap=4;curveFitting=1;strokeColor=default;fontFamily=Courier New;fontSize=16;fontColor=default;fillColor=default;" parent="1" vertex="1">
          <mxGeometry x="425" y="790" width="110" height="70" as="geometry" />
        </mxCell>
        <mxCell id="81ppOUsdeJMzFXG5UMjV-108" style="edgeStyle=none;shape=connector;rounded=0;hachureGap=4;jiggle=2;curveFitting=1;orthogonalLoop=1;jettySize=auto;html=1;exitX=1;exitY=0;exitDx=0;exitDy=0;entryX=0.5;entryY=1;entryDx=0;entryDy=0;labelBackgroundColor=default;strokeColor=default;fontFamily=Courier New;fontSource=https%3A%2F%2Ffonts.googleapis.com%2Fcss%3Ffamily%3DArchitects%2BDaughter;fontSize=16;fontColor=default;endArrow=none;endFill=0;" parent="1" source="81ppOUsdeJMzFXG5UMjV-18" target="81ppOUsdeJMzFXG5UMjV-5" edge="1">
          <mxGeometry relative="1" as="geometry" />
        </mxCell>
        <mxCell id="81ppOUsdeJMzFXG5UMjV-18" value="Attend" style="rhombus;whiteSpace=wrap;html=1;rounded=0;hachureGap=4;curveFitting=1;strokeColor=default;fontFamily=Courier New;fontSize=16;fontColor=default;fillColor=default;" parent="1" vertex="1">
          <mxGeometry x="515" y="320" width="100" height="70" as="geometry" />
        </mxCell>
        <mxCell id="81ppOUsdeJMzFXG5UMjV-106" style="edgeStyle=none;shape=connector;rounded=0;hachureGap=4;jiggle=2;curveFitting=1;orthogonalLoop=1;jettySize=auto;html=1;exitX=0;exitY=0;exitDx=0;exitDy=0;entryX=0.5;entryY=1;entryDx=0;entryDy=0;labelBackgroundColor=default;strokeColor=default;fontFamily=Courier New;fontSource=https%3A%2F%2Ffonts.googleapis.com%2Fcss%3Ffamily%3DArchitects%2BDaughter;fontSize=16;fontColor=default;endArrow=none;endFill=0;" parent="1" source="81ppOUsdeJMzFXG5UMjV-19" target="81ppOUsdeJMzFXG5UMjV-6" edge="1">
          <mxGeometry relative="1" as="geometry" />
        </mxCell>
        <mxCell id="81ppOUsdeJMzFXG5UMjV-19" value="From" style="rhombus;whiteSpace=wrap;html=1;rounded=0;hachureGap=4;curveFitting=1;strokeColor=default;fontFamily=Courier New;fontSize=16;fontColor=default;fillColor=default;strokeWidth=4;" parent="1" vertex="1">
          <mxGeometry x="110" y="270" width="90" height="60" as="geometry" />
        </mxCell>
        <mxCell id="81ppOUsdeJMzFXG5UMjV-92" style="edgeStyle=none;shape=connector;rounded=0;hachureGap=4;jiggle=2;curveFitting=1;orthogonalLoop=1;jettySize=auto;html=1;exitX=0;exitY=0.5;exitDx=0;exitDy=0;entryX=1;entryY=0;entryDx=0;entryDy=0;labelBackgroundColor=default;strokeColor=default;fontFamily=Courier New;fontSource=https%3A%2F%2Ffonts.googleapis.com%2Fcss%3Ffamily%3DArchitects%2BDaughter;fontSize=16;fontColor=default;endArrow=none;endFill=0;" parent="1" source="81ppOUsdeJMzFXG5UMjV-20" target="81ppOUsdeJMzFXG5UMjV-41" edge="1">
          <mxGeometry relative="1" as="geometry" />
        </mxCell>
        <mxCell id="81ppOUsdeJMzFXG5UMjV-93" style="edgeStyle=none;shape=connector;rounded=0;hachureGap=4;jiggle=2;curveFitting=1;orthogonalLoop=1;jettySize=auto;html=1;exitX=0.25;exitY=1;exitDx=0;exitDy=0;entryX=0.5;entryY=0;entryDx=0;entryDy=0;labelBackgroundColor=default;strokeColor=default;fontFamily=Courier New;fontSource=https%3A%2F%2Ffonts.googleapis.com%2Fcss%3Ffamily%3DArchitects%2BDaughter;fontSize=16;fontColor=default;endArrow=none;endFill=0;" parent="1" source="81ppOUsdeJMzFXG5UMjV-20" target="81ppOUsdeJMzFXG5UMjV-39" edge="1">
          <mxGeometry relative="1" as="geometry" />
        </mxCell>
        <mxCell id="81ppOUsdeJMzFXG5UMjV-94" style="edgeStyle=none;shape=connector;rounded=0;hachureGap=4;jiggle=2;curveFitting=1;orthogonalLoop=1;jettySize=auto;html=1;exitX=0.75;exitY=1;exitDx=0;exitDy=0;entryX=0.5;entryY=0;entryDx=0;entryDy=0;labelBackgroundColor=default;strokeColor=default;fontFamily=Courier New;fontSource=https%3A%2F%2Ffonts.googleapis.com%2Fcss%3Ffamily%3DArchitects%2BDaughter;fontSize=16;fontColor=default;endArrow=none;endFill=0;" parent="1" source="81ppOUsdeJMzFXG5UMjV-20" target="81ppOUsdeJMzFXG5UMjV-40" edge="1">
          <mxGeometry relative="1" as="geometry" />
        </mxCell>
        <mxCell id="81ppOUsdeJMzFXG5UMjV-95" style="edgeStyle=none;shape=connector;rounded=0;hachureGap=4;jiggle=2;curveFitting=1;orthogonalLoop=1;jettySize=auto;html=1;exitX=1;exitY=0.5;exitDx=0;exitDy=0;entryX=0;entryY=0.5;entryDx=0;entryDy=0;labelBackgroundColor=default;strokeColor=default;fontFamily=Courier New;fontSource=https%3A%2F%2Ffonts.googleapis.com%2Fcss%3Ffamily%3DArchitects%2BDaughter;fontSize=16;fontColor=default;endArrow=none;endFill=0;" parent="1" source="81ppOUsdeJMzFXG5UMjV-20" target="81ppOUsdeJMzFXG5UMjV-42" edge="1">
          <mxGeometry relative="1" as="geometry" />
        </mxCell>
        <mxCell id="81ppOUsdeJMzFXG5UMjV-20" value="Prizes" style="rounded=0;whiteSpace=wrap;html=1;hachureGap=4;curveFitting=1;strokeColor=default;fontFamily=Courier New;fontSize=16;fontColor=default;fillColor=default;" parent="1" vertex="1">
          <mxGeometry x="180" y="960" width="80" height="40" as="geometry" />
        </mxCell>
        <mxCell id="81ppOUsdeJMzFXG5UMjV-119" style="edgeStyle=none;shape=connector;rounded=0;hachureGap=4;jiggle=2;curveFitting=1;orthogonalLoop=1;jettySize=auto;html=1;exitX=1;exitY=1;exitDx=0;exitDy=0;entryX=0.5;entryY=0;entryDx=0;entryDy=0;labelBackgroundColor=default;strokeColor=default;fontFamily=Courier New;fontSource=https%3A%2F%2Ffonts.googleapis.com%2Fcss%3Ffamily%3DArchitects%2BDaughter;fontSize=16;fontColor=default;endArrow=none;endFill=0;strokeWidth=4;" parent="1" source="81ppOUsdeJMzFXG5UMjV-21" target="81ppOUsdeJMzFXG5UMjV-20" edge="1">
          <mxGeometry relative="1" as="geometry" />
        </mxCell>
        <mxCell id="81ppOUsdeJMzFXG5UMjV-21" value="Offer" style="rhombus;whiteSpace=wrap;html=1;rounded=0;hachureGap=4;curveFitting=1;strokeColor=default;fontFamily=Courier New;fontSize=16;fontColor=default;fillColor=default;" parent="1" vertex="1">
          <mxGeometry x="20" y="840" width="90" height="60" as="geometry" />
        </mxCell>
        <mxCell id="81ppOUsdeJMzFXG5UMjV-22" value="&lt;h1&gt;CPSC 304: Milestone 2&lt;br&gt;&lt;span style=&quot;font-weight: normal;&quot;&gt;&lt;font style=&quot;font-size: 18px;&quot;&gt;Project Group 10: Ratana Wang, Kaiser Chen, Naveed Ghassemi&lt;/font&gt;&lt;/span&gt;&lt;/h1&gt;" style="text;html=1;strokeColor=none;fillColor=none;spacing=5;spacingTop=-20;whiteSpace=wrap;overflow=hidden;rounded=0;fontSize=16;fontFamily=Courier New;fontColor=default;" parent="1" vertex="1">
          <mxGeometry x="10" y="10" width="680" height="120" as="geometry" />
        </mxCell>
        <mxCell id="81ppOUsdeJMzFXG5UMjV-87" style="edgeStyle=none;shape=connector;rounded=0;hachureGap=4;jiggle=2;curveFitting=1;orthogonalLoop=1;jettySize=auto;html=1;exitX=0;exitY=0.25;exitDx=0;exitDy=0;entryX=0.5;entryY=0;entryDx=0;entryDy=0;labelBackgroundColor=default;strokeColor=default;fontFamily=Courier New;fontSource=https%3A%2F%2Ffonts.googleapis.com%2Fcss%3Ffamily%3DArchitects%2BDaughter;fontSize=16;fontColor=default;endArrow=none;endFill=0;" parent="1" source="81ppOUsdeJMzFXG5UMjV-23" target="81ppOUsdeJMzFXG5UMjV-11" edge="1">
          <mxGeometry relative="1" as="geometry" />
        </mxCell>
        <mxCell id="81ppOUsdeJMzFXG5UMjV-88" style="edgeStyle=none;shape=connector;rounded=0;hachureGap=4;jiggle=2;curveFitting=1;orthogonalLoop=1;jettySize=auto;html=1;exitX=0;exitY=0.75;exitDx=0;exitDy=0;entryX=0.5;entryY=0;entryDx=0;entryDy=0;labelBackgroundColor=default;strokeColor=default;fontFamily=Courier New;fontSource=https%3A%2F%2Ffonts.googleapis.com%2Fcss%3Ffamily%3DArchitects%2BDaughter;fontSize=16;fontColor=default;endArrow=none;endFill=0;" parent="1" source="81ppOUsdeJMzFXG5UMjV-23" target="81ppOUsdeJMzFXG5UMjV-12" edge="1">
          <mxGeometry relative="1" as="geometry" />
        </mxCell>
        <mxCell id="81ppOUsdeJMzFXG5UMjV-23" value="IsA" style="triangle;whiteSpace=wrap;html=1;rounded=0;hachureGap=4;curveFitting=1;strokeColor=default;fontFamily=Courier New;fontSize=16;fontColor=default;fillColor=default;direction=north;" parent="1" vertex="1">
          <mxGeometry x="625" y="800" width="65" height="60" as="geometry" />
        </mxCell>
        <mxCell id="81ppOUsdeJMzFXG5UMjV-116" style="edgeStyle=none;shape=connector;rounded=0;hachureGap=4;jiggle=2;curveFitting=1;orthogonalLoop=1;jettySize=auto;html=1;exitX=0;exitY=0;exitDx=0;exitDy=0;entryX=0.75;entryY=1;entryDx=0;entryDy=0;labelBackgroundColor=default;strokeColor=default;fontFamily=Courier New;fontSource=https%3A%2F%2Ffonts.googleapis.com%2Fcss%3Ffamily%3DArchitects%2BDaughter;fontSize=16;fontColor=default;endArrow=none;endFill=0;strokeWidth=4;" parent="1" source="81ppOUsdeJMzFXG5UMjV-24" target="81ppOUsdeJMzFXG5UMjV-7" edge="1">
          <mxGeometry relative="1" as="geometry" />
        </mxCell>
        <mxCell id="81ppOUsdeJMzFXG5UMjV-24" value="Supervise" style="rhombus;whiteSpace=wrap;html=1;rounded=0;hachureGap=4;curveFitting=1;strokeColor=default;fontFamily=Courier New;fontSize=16;fontColor=default;fillColor=default;" parent="1" vertex="1">
          <mxGeometry x="140" y="770" width="140" height="70" as="geometry" />
        </mxCell>
        <mxCell id="81ppOUsdeJMzFXG5UMjV-28" value="" style="group" parent="1" vertex="1" connectable="0">
          <mxGeometry x="270" y="170" width="50" height="30" as="geometry" />
        </mxCell>
        <mxCell id="81ppOUsdeJMzFXG5UMjV-25" value="&lt;font style=&quot;font-size: 12px;&quot;&gt;kind&lt;/font&gt;" style="ellipse;whiteSpace=wrap;html=1;rounded=0;hachureGap=4;curveFitting=1;strokeColor=default;fontFamily=Courier New;fontSize=12;fontColor=default;fillColor=default;" parent="81ppOUsdeJMzFXG5UMjV-28" vertex="1">
          <mxGeometry width="50" height="30" as="geometry" />
        </mxCell>
        <mxCell id="81ppOUsdeJMzFXG5UMjV-26" value="" style="endArrow=none;dashed=1;html=1;rounded=0;hachureGap=4;jiggle=2;curveFitting=1;fontFamily=Courier New;fontSource=https%3A%2F%2Ffonts.googleapis.com%2Fcss%3Ffamily%3DArchitects%2BDaughter;fontSize=16;fontColor=default;" parent="81ppOUsdeJMzFXG5UMjV-28" edge="1">
          <mxGeometry width="50" height="50" relative="1" as="geometry">
            <mxPoint x="10" y="20" as="sourcePoint" />
            <mxPoint x="40" y="20" as="targetPoint" />
          </mxGeometry>
        </mxCell>
        <mxCell id="81ppOUsdeJMzFXG5UMjV-29" value="spendings" style="ellipse;whiteSpace=wrap;html=1;rounded=0;hachureGap=4;curveFitting=1;strokeColor=default;fontFamily=Courier New;fontSize=12;fontColor=default;fillColor=default;" parent="1" vertex="1">
          <mxGeometry x="115" y="410" width="80" height="40" as="geometry" />
        </mxCell>
        <mxCell id="81ppOUsdeJMzFXG5UMjV-72" style="edgeStyle=none;shape=connector;rounded=0;hachureGap=4;jiggle=2;curveFitting=1;orthogonalLoop=1;jettySize=auto;html=1;exitX=0.5;exitY=1;exitDx=0;exitDy=0;entryX=0.25;entryY=0;entryDx=0;entryDy=0;labelBackgroundColor=default;strokeColor=default;fontFamily=Courier New;fontSource=https%3A%2F%2Ffonts.googleapis.com%2Fcss%3Ffamily%3DArchitects%2BDaughter;fontSize=16;fontColor=default;endArrow=none;endFill=0;" parent="1" source="81ppOUsdeJMzFXG5UMjV-30" target="81ppOUsdeJMzFXG5UMjV-6" edge="1">
          <mxGeometry relative="1" as="geometry" />
        </mxCell>
        <mxCell id="81ppOUsdeJMzFXG5UMjV-30" value="&lt;span style=&quot;font-size: 12px;&quot;&gt;&lt;u&gt;name&lt;/u&gt;&lt;/span&gt;" style="ellipse;whiteSpace=wrap;html=1;rounded=0;hachureGap=4;curveFitting=1;strokeColor=default;fontFamily=Courier New;fontSize=16;fontColor=default;fillColor=default;" parent="1" vertex="1">
          <mxGeometry x="25" y="130" width="50" height="30" as="geometry" />
        </mxCell>
        <mxCell id="81ppOUsdeJMzFXG5UMjV-97" style="edgeStyle=none;shape=connector;rounded=0;hachureGap=4;jiggle=2;curveFitting=1;orthogonalLoop=1;jettySize=auto;html=1;exitX=1;exitY=1;exitDx=0;exitDy=0;entryX=0.25;entryY=0;entryDx=0;entryDy=0;labelBackgroundColor=default;strokeColor=default;fontFamily=Courier New;fontSource=https%3A%2F%2Ffonts.googleapis.com%2Fcss%3Ffamily%3DArchitects%2BDaughter;fontSize=16;fontColor=default;endArrow=none;endFill=0;" parent="1" source="81ppOUsdeJMzFXG5UMjV-31" target="81ppOUsdeJMzFXG5UMjV-7" edge="1">
          <mxGeometry relative="1" as="geometry" />
        </mxCell>
        <mxCell id="81ppOUsdeJMzFXG5UMjV-31" value="&lt;span style=&quot;font-size: 12px;&quot;&gt;&lt;u&gt;name&lt;/u&gt;&lt;/span&gt;" style="ellipse;whiteSpace=wrap;html=1;rounded=0;hachureGap=4;curveFitting=1;strokeColor=default;fontFamily=Courier New;fontSize=16;fontColor=default;fillColor=default;" parent="1" vertex="1">
          <mxGeometry x="25" y="632.5" width="50" height="30" as="geometry" />
        </mxCell>
        <mxCell id="81ppOUsdeJMzFXG5UMjV-99" style="edgeStyle=none;shape=connector;rounded=0;hachureGap=4;jiggle=2;curveFitting=1;orthogonalLoop=1;jettySize=auto;html=1;exitX=1;exitY=1;exitDx=0;exitDy=0;entryX=0.25;entryY=0;entryDx=0;entryDy=0;labelBackgroundColor=default;strokeColor=default;fontFamily=Courier New;fontSource=https%3A%2F%2Ffonts.googleapis.com%2Fcss%3Ffamily%3DArchitects%2BDaughter;fontSize=16;fontColor=default;endArrow=none;endFill=0;" parent="1" source="81ppOUsdeJMzFXG5UMjV-32" target="81ppOUsdeJMzFXG5UMjV-8" edge="1">
          <mxGeometry relative="1" as="geometry" />
        </mxCell>
        <mxCell id="81ppOUsdeJMzFXG5UMjV-32" value="&lt;span style=&quot;font-size: 12px;&quot;&gt;name&lt;/span&gt;" style="ellipse;whiteSpace=wrap;html=1;rounded=0;hachureGap=4;curveFitting=1;strokeColor=default;fontFamily=Courier New;fontSize=16;fontColor=default;fillColor=default;" parent="1" vertex="1">
          <mxGeometry x="275" y="662.5" width="50" height="30" as="geometry" />
        </mxCell>
        <mxCell id="81ppOUsdeJMzFXG5UMjV-69" style="edgeStyle=none;shape=connector;rounded=0;hachureGap=4;jiggle=2;curveFitting=1;orthogonalLoop=1;jettySize=auto;html=1;exitX=0.5;exitY=1;exitDx=0;exitDy=0;entryX=0.75;entryY=0;entryDx=0;entryDy=0;labelBackgroundColor=default;strokeColor=default;fontFamily=Courier New;fontSource=https%3A%2F%2Ffonts.googleapis.com%2Fcss%3Ffamily%3DArchitects%2BDaughter;fontSize=16;fontColor=default;endArrow=none;endFill=0;" parent="1" source="81ppOUsdeJMzFXG5UMjV-33" target="81ppOUsdeJMzFXG5UMjV-3" edge="1">
          <mxGeometry relative="1" as="geometry" />
        </mxCell>
        <mxCell id="81ppOUsdeJMzFXG5UMjV-33" value="&lt;span style=&quot;font-size: 12px;&quot;&gt;name&lt;/span&gt;" style="ellipse;whiteSpace=wrap;html=1;rounded=0;hachureGap=4;curveFitting=1;strokeColor=default;fontFamily=Courier New;fontSize=16;fontColor=default;fillColor=default;" parent="1" vertex="1">
          <mxGeometry x="420" y="372.5" width="50" height="30" as="geometry" />
        </mxCell>
        <mxCell id="81ppOUsdeJMzFXG5UMjV-74" style="edgeStyle=none;shape=connector;rounded=0;hachureGap=4;jiggle=2;curveFitting=1;orthogonalLoop=1;jettySize=auto;html=1;exitX=1;exitY=1;exitDx=0;exitDy=0;entryX=0;entryY=0.25;entryDx=0;entryDy=0;labelBackgroundColor=default;strokeColor=default;fontFamily=Courier New;fontSource=https%3A%2F%2Ffonts.googleapis.com%2Fcss%3Ffamily%3DArchitects%2BDaughter;fontSize=16;fontColor=default;endArrow=none;endFill=0;" parent="1" source="81ppOUsdeJMzFXG5UMjV-34" target="81ppOUsdeJMzFXG5UMjV-5" edge="1">
          <mxGeometry relative="1" as="geometry" />
        </mxCell>
        <mxCell id="81ppOUsdeJMzFXG5UMjV-34" value="&lt;span style=&quot;font-size: 12px;&quot;&gt;&lt;u&gt;name&lt;/u&gt;&lt;/span&gt;" style="ellipse;whiteSpace=wrap;html=1;rounded=0;hachureGap=4;curveFitting=1;strokeColor=default;fontFamily=Courier New;fontSize=16;fontColor=default;fillColor=default;" parent="1" vertex="1">
          <mxGeometry x="590" y="190" width="50" height="30" as="geometry" />
        </mxCell>
        <mxCell id="81ppOUsdeJMzFXG5UMjV-84" style="edgeStyle=none;shape=connector;rounded=0;hachureGap=4;jiggle=2;curveFitting=1;orthogonalLoop=1;jettySize=auto;html=1;exitX=0;exitY=1;exitDx=0;exitDy=0;entryX=1;entryY=0.25;entryDx=0;entryDy=0;labelBackgroundColor=default;strokeColor=default;fontFamily=Courier New;fontSource=https%3A%2F%2Ffonts.googleapis.com%2Fcss%3Ffamily%3DArchitects%2BDaughter;fontSize=16;fontColor=default;endArrow=none;endFill=0;" parent="1" source="81ppOUsdeJMzFXG5UMjV-35" target="81ppOUsdeJMzFXG5UMjV-9" edge="1">
          <mxGeometry relative="1" as="geometry" />
        </mxCell>
        <mxCell id="81ppOUsdeJMzFXG5UMjV-35" value="&lt;span style=&quot;font-size: 12px;&quot;&gt;&lt;u&gt;name&lt;/u&gt;&lt;/span&gt;" style="ellipse;whiteSpace=wrap;html=1;rounded=0;hachureGap=4;curveFitting=1;strokeColor=default;fontFamily=Courier New;fontSize=16;fontColor=default;fillColor=default;" parent="1" vertex="1">
          <mxGeometry x="757.5" y="707.5" width="50" height="30" as="geometry" />
        </mxCell>
        <mxCell id="81ppOUsdeJMzFXG5UMjV-98" style="edgeStyle=none;shape=connector;rounded=0;hachureGap=4;jiggle=2;curveFitting=1;orthogonalLoop=1;jettySize=auto;html=1;exitX=0.5;exitY=1;exitDx=0;exitDy=0;entryX=0.5;entryY=0;entryDx=0;entryDy=0;labelBackgroundColor=default;strokeColor=default;fontFamily=Courier New;fontSource=https%3A%2F%2Ffonts.googleapis.com%2Fcss%3Ffamily%3DArchitects%2BDaughter;fontSize=16;fontColor=default;endArrow=none;endFill=0;" parent="1" source="81ppOUsdeJMzFXG5UMjV-37" target="81ppOUsdeJMzFXG5UMjV-7" edge="1">
          <mxGeometry relative="1" as="geometry" />
        </mxCell>
        <mxCell id="81ppOUsdeJMzFXG5UMjV-37" value="&lt;span style=&quot;font-size: 12px;&quot;&gt;price&lt;/span&gt;" style="ellipse;whiteSpace=wrap;html=1;rounded=0;hachureGap=4;curveFitting=1;strokeColor=default;fontFamily=Courier New;fontSize=16;fontColor=default;fillColor=default;" parent="1" vertex="1">
          <mxGeometry x="90" y="625" width="50" height="30" as="geometry" />
        </mxCell>
        <mxCell id="81ppOUsdeJMzFXG5UMjV-96" style="edgeStyle=none;shape=connector;rounded=0;hachureGap=4;jiggle=2;curveFitting=1;orthogonalLoop=1;jettySize=auto;html=1;exitX=1;exitY=0.5;exitDx=0;exitDy=0;entryX=0;entryY=0.5;entryDx=0;entryDy=0;labelBackgroundColor=default;strokeColor=default;fontFamily=Courier New;fontSource=https%3A%2F%2Ffonts.googleapis.com%2Fcss%3Ffamily%3DArchitects%2BDaughter;fontSize=16;fontColor=default;endArrow=none;endFill=0;" parent="1" source="81ppOUsdeJMzFXG5UMjV-38" target="81ppOUsdeJMzFXG5UMjV-7" edge="1">
          <mxGeometry relative="1" as="geometry" />
        </mxCell>
        <mxCell id="81ppOUsdeJMzFXG5UMjV-38" value="&lt;span style=&quot;font-size: 12px;&quot;&gt;kind&lt;/span&gt;" style="ellipse;whiteSpace=wrap;html=1;rounded=0;hachureGap=4;curveFitting=1;strokeColor=default;fontFamily=Courier New;fontSize=16;fontColor=default;fillColor=default;" parent="1" vertex="1">
          <mxGeometry x="10" y="677.5" width="50" height="30" as="geometry" />
        </mxCell>
        <mxCell id="81ppOUsdeJMzFXG5UMjV-39" value="&lt;span style=&quot;font-size: 12px;&quot;&gt;kind&lt;/span&gt;" style="ellipse;whiteSpace=wrap;html=1;rounded=0;hachureGap=4;curveFitting=1;strokeColor=default;fontFamily=Courier New;fontSize=16;fontColor=default;fillColor=default;" parent="1" vertex="1">
          <mxGeometry x="165" y="1020" width="50" height="30" as="geometry" />
        </mxCell>
        <mxCell id="81ppOUsdeJMzFXG5UMjV-40" value="&lt;span style=&quot;font-size: 12px;&quot;&gt;name&lt;/span&gt;" style="ellipse;whiteSpace=wrap;html=1;rounded=0;hachureGap=4;curveFitting=1;strokeColor=default;fontFamily=Courier New;fontSize=16;fontColor=default;fillColor=default;" parent="1" vertex="1">
          <mxGeometry x="235" y="1020" width="50" height="30" as="geometry" />
        </mxCell>
        <mxCell id="81ppOUsdeJMzFXG5UMjV-41" value="&lt;span style=&quot;font-size: 12px;&quot;&gt;cost&lt;br&gt;&lt;/span&gt;" style="ellipse;whiteSpace=wrap;html=1;rounded=0;hachureGap=4;curveFitting=1;strokeColor=default;fontFamily=Courier New;fontSize=16;fontColor=default;fillColor=default;" parent="1" vertex="1">
          <mxGeometry x="100" y="990" width="50" height="30" as="geometry" />
        </mxCell>
        <mxCell id="81ppOUsdeJMzFXG5UMjV-42" value="&lt;span style=&quot;font-size: 12px;&quot;&gt;&lt;u&gt;id&lt;/u&gt;&lt;/span&gt;" style="ellipse;whiteSpace=wrap;html=1;rounded=0;hachureGap=4;curveFitting=1;strokeColor=default;fontFamily=Courier New;fontSize=16;fontColor=default;fillColor=default;" parent="1" vertex="1">
          <mxGeometry x="300" y="980" width="40" height="30" as="geometry" />
        </mxCell>
        <mxCell id="81ppOUsdeJMzFXG5UMjV-100" style="edgeStyle=none;shape=connector;rounded=0;hachureGap=4;jiggle=2;curveFitting=1;orthogonalLoop=1;jettySize=auto;html=1;exitX=0.5;exitY=1;exitDx=0;exitDy=0;entryX=0.5;entryY=0;entryDx=0;entryDy=0;labelBackgroundColor=default;strokeColor=default;fontFamily=Courier New;fontSource=https%3A%2F%2Ffonts.googleapis.com%2Fcss%3Ffamily%3DArchitects%2BDaughter;fontSize=16;fontColor=default;endArrow=none;endFill=0;" parent="1" source="81ppOUsdeJMzFXG5UMjV-43" target="81ppOUsdeJMzFXG5UMjV-8" edge="1">
          <mxGeometry relative="1" as="geometry" />
        </mxCell>
        <mxCell id="81ppOUsdeJMzFXG5UMjV-43" value="&lt;span style=&quot;font-size: 12px;&quot;&gt;&lt;u&gt;id&lt;/u&gt;&lt;/span&gt;" style="ellipse;whiteSpace=wrap;html=1;rounded=0;hachureGap=4;curveFitting=1;strokeColor=default;fontFamily=Courier New;fontSize=16;fontColor=default;fillColor=default;" parent="1" vertex="1">
          <mxGeometry x="340" y="652.5" width="40" height="30" as="geometry" />
        </mxCell>
        <mxCell id="81ppOUsdeJMzFXG5UMjV-101" style="edgeStyle=none;shape=connector;rounded=0;hachureGap=4;jiggle=2;curveFitting=1;orthogonalLoop=1;jettySize=auto;html=1;exitX=0;exitY=1;exitDx=0;exitDy=0;entryX=0.75;entryY=0;entryDx=0;entryDy=0;labelBackgroundColor=default;strokeColor=default;fontFamily=Courier New;fontSource=https%3A%2F%2Ffonts.googleapis.com%2Fcss%3Ffamily%3DArchitects%2BDaughter;fontSize=16;fontColor=default;endArrow=none;endFill=0;" parent="1" source="81ppOUsdeJMzFXG5UMjV-44" target="81ppOUsdeJMzFXG5UMjV-8" edge="1">
          <mxGeometry relative="1" as="geometry" />
        </mxCell>
        <mxCell id="81ppOUsdeJMzFXG5UMjV-44" value="&lt;span style=&quot;font-size: 12px;&quot;&gt;salary&lt;/span&gt;" style="ellipse;whiteSpace=wrap;html=1;rounded=0;hachureGap=4;curveFitting=1;strokeColor=default;fontFamily=Courier New;fontSize=16;fontColor=default;fillColor=default;" parent="1" vertex="1">
          <mxGeometry x="395" y="667.5" width="65" height="30" as="geometry" />
        </mxCell>
        <mxCell id="81ppOUsdeJMzFXG5UMjV-85" style="edgeStyle=none;shape=connector;rounded=0;hachureGap=4;jiggle=2;curveFitting=1;orthogonalLoop=1;jettySize=auto;html=1;exitX=0;exitY=0;exitDx=0;exitDy=0;entryX=1;entryY=0.75;entryDx=0;entryDy=0;labelBackgroundColor=default;strokeColor=default;fontFamily=Courier New;fontSource=https%3A%2F%2Ffonts.googleapis.com%2Fcss%3Ffamily%3DArchitects%2BDaughter;fontSize=16;fontColor=default;endArrow=none;endFill=0;" parent="1" source="81ppOUsdeJMzFXG5UMjV-45" target="81ppOUsdeJMzFXG5UMjV-9" edge="1">
          <mxGeometry relative="1" as="geometry" />
        </mxCell>
        <mxCell id="81ppOUsdeJMzFXG5UMjV-45" value="&lt;span style=&quot;font-size: 12px;&quot;&gt;kind&lt;/span&gt;" style="ellipse;whiteSpace=wrap;html=1;rounded=0;hachureGap=4;curveFitting=1;strokeColor=default;fontFamily=Courier New;fontSize=16;fontColor=default;fillColor=default;" parent="1" vertex="1">
          <mxGeometry x="755" y="767.5" width="50" height="30" as="geometry" />
        </mxCell>
        <mxCell id="81ppOUsdeJMzFXG5UMjV-83" style="edgeStyle=none;shape=connector;rounded=0;hachureGap=4;jiggle=2;curveFitting=1;orthogonalLoop=1;jettySize=auto;html=1;exitX=0.5;exitY=1;exitDx=0;exitDy=0;entryX=0.75;entryY=0;entryDx=0;entryDy=0;labelBackgroundColor=default;strokeColor=default;fontFamily=Courier New;fontSource=https%3A%2F%2Ffonts.googleapis.com%2Fcss%3Ffamily%3DArchitects%2BDaughter;fontSize=16;fontColor=default;endArrow=none;endFill=0;" parent="1" source="81ppOUsdeJMzFXG5UMjV-46" target="81ppOUsdeJMzFXG5UMjV-9" edge="1">
          <mxGeometry relative="1" as="geometry" />
        </mxCell>
        <mxCell id="81ppOUsdeJMzFXG5UMjV-46" value="&lt;span style=&quot;font-size: 12px;&quot;&gt;waitingTime&lt;/span&gt;" style="ellipse;whiteSpace=wrap;html=1;rounded=0;hachureGap=4;curveFitting=1;strokeColor=default;fontFamily=Courier New;fontSize=16;fontColor=default;fillColor=default;" parent="1" vertex="1">
          <mxGeometry x="652.5" y="662.5" width="95" height="40" as="geometry" />
        </mxCell>
        <mxCell id="81ppOUsdeJMzFXG5UMjV-47" value="&lt;span style=&quot;font-size: 12px;&quot;&gt;heightLimit&lt;/span&gt;" style="ellipse;whiteSpace=wrap;html=1;rounded=0;hachureGap=4;curveFitting=1;strokeColor=default;fontFamily=Courier New;fontSize=16;fontColor=default;fillColor=default;" parent="1" vertex="1">
          <mxGeometry x="537.5" y="980" width="95" height="40" as="geometry" />
        </mxCell>
        <mxCell id="81ppOUsdeJMzFXG5UMjV-48" value="&lt;span style=&quot;font-size: 12px;&quot;&gt;duration&lt;/span&gt;" style="ellipse;whiteSpace=wrap;html=1;rounded=0;hachureGap=4;curveFitting=1;strokeColor=default;fontFamily=Courier New;fontSize=16;fontColor=default;fillColor=default;" parent="1" vertex="1">
          <mxGeometry x="442.5" y="960" width="75" height="30" as="geometry" />
        </mxCell>
        <mxCell id="81ppOUsdeJMzFXG5UMjV-49" value="&lt;span style=&quot;font-size: 12px;&quot;&gt;avgDuration&lt;/span&gt;" style="ellipse;whiteSpace=wrap;html=1;rounded=0;hachureGap=4;curveFitting=1;strokeColor=default;fontFamily=Courier New;fontSize=16;fontColor=default;fillColor=default;" parent="1" vertex="1">
          <mxGeometry x="695" y="980" width="92.5" height="40" as="geometry" />
        </mxCell>
        <mxCell id="81ppOUsdeJMzFXG5UMjV-50" value="&lt;span style=&quot;font-size: 12px;&quot;&gt;kind&lt;/span&gt;" style="ellipse;whiteSpace=wrap;html=1;rounded=0;hachureGap=4;curveFitting=1;strokeColor=default;fontFamily=Courier New;fontSize=16;fontColor=default;fillColor=default;" parent="1" vertex="1">
          <mxGeometry x="658.75" y="520" width="50" height="30" as="geometry" />
        </mxCell>
        <mxCell id="81ppOUsdeJMzFXG5UMjV-51" value="&lt;span style=&quot;font-size: 12px;&quot;&gt;&lt;u&gt;id&lt;/u&gt;&lt;/span&gt;" style="ellipse;whiteSpace=wrap;html=1;rounded=0;hachureGap=4;curveFitting=1;strokeColor=default;fontFamily=Courier New;fontSize=16;fontColor=default;fillColor=default;" parent="1" vertex="1">
          <mxGeometry x="723.13" y="522.5" width="43.75" height="30" as="geometry" />
        </mxCell>
        <mxCell id="81ppOUsdeJMzFXG5UMjV-52" value="&lt;span style=&quot;font-size: 12px;&quot;&gt;price&lt;/span&gt;" style="ellipse;whiteSpace=wrap;html=1;rounded=0;hachureGap=4;curveFitting=1;strokeColor=default;fontFamily=Courier New;fontSize=16;fontColor=default;fillColor=default;" parent="1" vertex="1">
          <mxGeometry x="781.25" y="522.5" width="50" height="30" as="geometry" />
        </mxCell>
        <mxCell id="81ppOUsdeJMzFXG5UMjV-79" style="edgeStyle=none;shape=connector;rounded=0;hachureGap=4;jiggle=2;curveFitting=1;orthogonalLoop=1;jettySize=auto;html=1;exitX=0.5;exitY=1;exitDx=0;exitDy=0;entryX=0.75;entryY=0;entryDx=0;entryDy=0;labelBackgroundColor=default;strokeColor=default;fontFamily=Courier New;fontSource=https%3A%2F%2Ffonts.googleapis.com%2Fcss%3Ffamily%3DArchitects%2BDaughter;fontSize=16;fontColor=default;endArrow=none;endFill=0;" parent="1" source="81ppOUsdeJMzFXG5UMjV-53" target="81ppOUsdeJMzFXG5UMjV-10" edge="1">
          <mxGeometry relative="1" as="geometry" />
        </mxCell>
        <mxCell id="81ppOUsdeJMzFXG5UMjV-53" value="&lt;span style=&quot;font-size: 12px;&quot;&gt;startTime&lt;/span&gt;" style="ellipse;whiteSpace=wrap;html=1;rounded=0;hachureGap=4;curveFitting=1;strokeColor=default;fontFamily=Courier New;fontSize=16;fontColor=default;fillColor=default;" parent="1" vertex="1">
          <mxGeometry x="742.5" y="410" width="80" height="40" as="geometry" />
        </mxCell>
        <mxCell id="81ppOUsdeJMzFXG5UMjV-78" style="edgeStyle=none;shape=connector;rounded=0;hachureGap=4;jiggle=2;curveFitting=1;orthogonalLoop=1;jettySize=auto;html=1;exitX=0.5;exitY=1;exitDx=0;exitDy=0;entryX=0.25;entryY=0;entryDx=0;entryDy=0;labelBackgroundColor=default;strokeColor=default;fontFamily=Courier New;fontSource=https%3A%2F%2Ffonts.googleapis.com%2Fcss%3Ffamily%3DArchitects%2BDaughter;fontSize=16;fontColor=default;endArrow=none;endFill=0;" parent="1" source="81ppOUsdeJMzFXG5UMjV-56" target="81ppOUsdeJMzFXG5UMjV-10" edge="1">
          <mxGeometry relative="1" as="geometry" />
        </mxCell>
        <mxCell id="81ppOUsdeJMzFXG5UMjV-56" value="&lt;span style=&quot;font-size: 12px;&quot;&gt;endTime&lt;/span&gt;" style="ellipse;whiteSpace=wrap;html=1;rounded=0;hachureGap=4;curveFitting=1;strokeColor=default;fontFamily=Courier New;fontSize=16;fontColor=default;fillColor=default;" parent="1" vertex="1">
          <mxGeometry x="667.5" y="410" width="65" height="40" as="geometry" />
        </mxCell>
        <mxCell id="81ppOUsdeJMzFXG5UMjV-75" style="edgeStyle=none;shape=connector;rounded=0;hachureGap=4;jiggle=2;curveFitting=1;orthogonalLoop=1;jettySize=auto;html=1;exitX=0.5;exitY=1;exitDx=0;exitDy=0;entryX=0.5;entryY=0;entryDx=0;entryDy=0;labelBackgroundColor=default;strokeColor=default;fontFamily=Courier New;fontSource=https%3A%2F%2Ffonts.googleapis.com%2Fcss%3Ffamily%3DArchitects%2BDaughter;fontSize=16;fontColor=default;endArrow=none;endFill=0;" parent="1" source="81ppOUsdeJMzFXG5UMjV-57" target="81ppOUsdeJMzFXG5UMjV-5" edge="1">
          <mxGeometry relative="1" as="geometry" />
        </mxCell>
        <mxCell id="81ppOUsdeJMzFXG5UMjV-57" value="&lt;span style=&quot;font-size: 12px;&quot;&gt;&lt;u&gt;startTime&lt;/u&gt;&lt;/span&gt;" style="ellipse;whiteSpace=wrap;html=1;rounded=0;hachureGap=4;curveFitting=1;strokeColor=default;fontFamily=Courier New;fontSize=16;fontColor=default;fillColor=default;" parent="1" vertex="1">
          <mxGeometry x="658.75" y="170" width="80" height="40" as="geometry" />
        </mxCell>
        <mxCell id="81ppOUsdeJMzFXG5UMjV-76" style="edgeStyle=none;shape=connector;rounded=0;hachureGap=4;jiggle=2;curveFitting=1;orthogonalLoop=1;jettySize=auto;html=1;exitX=0;exitY=1;exitDx=0;exitDy=0;entryX=1;entryY=0.25;entryDx=0;entryDy=0;labelBackgroundColor=default;strokeColor=default;fontFamily=Courier New;fontSource=https%3A%2F%2Ffonts.googleapis.com%2Fcss%3Ffamily%3DArchitects%2BDaughter;fontSize=16;fontColor=default;endArrow=none;endFill=0;" parent="1" source="81ppOUsdeJMzFXG5UMjV-58" target="81ppOUsdeJMzFXG5UMjV-5" edge="1">
          <mxGeometry relative="1" as="geometry" />
        </mxCell>
        <mxCell id="81ppOUsdeJMzFXG5UMjV-58" value="&lt;span style=&quot;font-size: 12px;&quot;&gt;endTime&lt;/span&gt;" style="ellipse;whiteSpace=wrap;html=1;rounded=0;hachureGap=4;curveFitting=1;strokeColor=default;fontFamily=Courier New;fontSize=16;fontColor=default;fillColor=default;" parent="1" vertex="1">
          <mxGeometry x="750" y="185" width="65" height="40" as="geometry" />
        </mxCell>
        <mxCell id="81ppOUsdeJMzFXG5UMjV-67" style="edgeStyle=none;shape=connector;rounded=0;hachureGap=4;jiggle=2;curveFitting=1;orthogonalLoop=1;jettySize=auto;html=1;exitX=0.5;exitY=0;exitDx=0;exitDy=0;entryX=0.75;entryY=1;entryDx=0;entryDy=0;labelBackgroundColor=default;strokeColor=default;fontFamily=Courier New;fontSource=https%3A%2F%2Ffonts.googleapis.com%2Fcss%3Ffamily%3DArchitects%2BDaughter;fontSize=16;fontColor=default;endArrow=none;endFill=0;" parent="1" source="81ppOUsdeJMzFXG5UMjV-59" target="81ppOUsdeJMzFXG5UMjV-3" edge="1">
          <mxGeometry relative="1" as="geometry" />
        </mxCell>
        <mxCell id="81ppOUsdeJMzFXG5UMjV-59" value="&lt;span style=&quot;font-size: 12px;&quot;&gt;&lt;u&gt;id&lt;/u&gt;&lt;/span&gt;" style="ellipse;whiteSpace=wrap;html=1;rounded=0;hachureGap=4;curveFitting=1;strokeColor=default;fontFamily=Courier New;fontSize=16;fontColor=default;fillColor=default;" parent="1" vertex="1">
          <mxGeometry x="415" y="492.5" width="40" height="30" as="geometry" />
        </mxCell>
        <mxCell id="81ppOUsdeJMzFXG5UMjV-68" style="edgeStyle=none;shape=connector;rounded=0;hachureGap=4;jiggle=2;curveFitting=1;orthogonalLoop=1;jettySize=auto;html=1;exitX=0.5;exitY=1;exitDx=0;exitDy=0;entryX=0.25;entryY=0;entryDx=0;entryDy=0;labelBackgroundColor=default;strokeColor=default;fontFamily=Courier New;fontSource=https%3A%2F%2Ffonts.googleapis.com%2Fcss%3Ffamily%3DArchitects%2BDaughter;fontSize=16;fontColor=default;endArrow=none;endFill=0;" parent="1" source="81ppOUsdeJMzFXG5UMjV-60" target="81ppOUsdeJMzFXG5UMjV-3" edge="1">
          <mxGeometry relative="1" as="geometry" />
        </mxCell>
        <mxCell id="81ppOUsdeJMzFXG5UMjV-60" value="&lt;span style=&quot;font-size: 12px;&quot;&gt;height&lt;/span&gt;" style="ellipse;whiteSpace=wrap;html=1;rounded=0;hachureGap=4;curveFitting=1;strokeColor=default;fontFamily=Courier New;fontSize=16;fontColor=default;fillColor=default;" parent="1" vertex="1">
          <mxGeometry x="350" y="372.5" width="65" height="30" as="geometry" />
        </mxCell>
        <mxCell id="81ppOUsdeJMzFXG5UMjV-61" value="&lt;span style=&quot;font-size: 12px;&quot;&gt;age&lt;/span&gt;" style="ellipse;whiteSpace=wrap;html=1;rounded=0;hachureGap=4;curveFitting=1;strokeColor=default;fontFamily=Courier New;fontSize=16;fontColor=default;fillColor=default;" parent="1" vertex="1">
          <mxGeometry x="357.5" y="492.5" width="50" height="30" as="geometry" />
        </mxCell>
        <mxCell id="81ppOUsdeJMzFXG5UMjV-70" style="edgeStyle=none;shape=connector;rounded=0;hachureGap=4;jiggle=2;curveFitting=1;orthogonalLoop=1;jettySize=auto;html=1;exitX=1;exitY=0.5;exitDx=0;exitDy=0;entryX=0;entryY=0;entryDx=0;entryDy=0;labelBackgroundColor=default;strokeColor=default;fontFamily=Courier New;fontSource=https%3A%2F%2Ffonts.googleapis.com%2Fcss%3Ffamily%3DArchitects%2BDaughter;fontSize=16;fontColor=default;endArrow=none;endFill=0;" parent="1" source="81ppOUsdeJMzFXG5UMjV-62" target="81ppOUsdeJMzFXG5UMjV-14" edge="1">
          <mxGeometry relative="1" as="geometry" />
        </mxCell>
        <mxCell id="81ppOUsdeJMzFXG5UMjV-62" value="wins" style="ellipse;whiteSpace=wrap;html=1;rounded=0;hachureGap=4;curveFitting=1;strokeColor=default;fontFamily=Courier New;fontSize=12;fontColor=default;fillColor=default;" parent="1" vertex="1">
          <mxGeometry x="150" y="482.5" width="45" height="25" as="geometry" />
        </mxCell>
        <mxCell id="81ppOUsdeJMzFXG5UMjV-73" style="edgeStyle=none;shape=connector;rounded=0;hachureGap=4;jiggle=2;curveFitting=1;orthogonalLoop=1;jettySize=auto;html=1;exitX=0.5;exitY=1;exitDx=0;exitDy=0;entryX=0.25;entryY=0;entryDx=0;entryDy=0;labelBackgroundColor=default;strokeColor=default;fontFamily=Courier New;fontSource=https%3A%2F%2Ffonts.googleapis.com%2Fcss%3Ffamily%3DArchitects%2BDaughter;fontSize=16;fontColor=default;endArrow=none;endFill=0;" parent="1" source="81ppOUsdeJMzFXG5UMjV-25" target="81ppOUsdeJMzFXG5UMjV-4" edge="1">
          <mxGeometry relative="1" as="geometry" />
        </mxCell>
        <mxCell id="81ppOUsdeJMzFXG5UMjV-122" value="&lt;font style=&quot;font-size: 12px;&quot;&gt;total + disjoint&lt;/font&gt;" style="text;html=1;strokeColor=none;fillColor=none;align=center;verticalAlign=middle;whiteSpace=wrap;rounded=0;fontSize=16;fontFamily=Courier New;fontColor=default;" parent="1" vertex="1">
          <mxGeometry x="685" y="815" width="70" height="30" as="geometry" />
        </mxCell>
        <mxCell id="cLConAzINVmgi7hrMVg2-2" style="rounded=0;hachureGap=4;jiggle=2;curveFitting=1;orthogonalLoop=1;jettySize=auto;html=1;exitX=0;exitY=0;exitDx=0;exitDy=0;fontFamily=Architects Daughter;fontSource=https%3A%2F%2Ffonts.googleapis.com%2Fcss%3Ffamily%3DArchitects%2BDaughter;fontSize=16;endArrow=none;endFill=0;" parent="1" source="cLConAzINVmgi7hrMVg2-1" target="81ppOUsdeJMzFXG5UMjV-16" edge="1">
          <mxGeometry relative="1" as="geometry" />
        </mxCell>
        <mxCell id="cLConAzINVmgi7hrMVg2-1" value="&lt;span style=&quot;font-size: 12px;&quot;&gt;frequency&lt;/span&gt;" style="ellipse;whiteSpace=wrap;html=1;rounded=0;hachureGap=4;curveFitting=1;strokeColor=default;fontFamily=Courier New;fontSize=16;fontColor=default;fillColor=default;" parent="1" vertex="1">
          <mxGeometry x="615" y="610" width="75" height="40" as="geometry" />
        </mxCell>
        <mxCell id="cLConAzINVmgi7hrMVg2-3" value="difficulty" style="ellipse;whiteSpace=wrap;html=1;rounded=0;hachureGap=4;curveFitting=1;strokeColor=default;fontFamily=Courier New;fontSize=12;fontColor=default;fillColor=default;" parent="1" vertex="1">
          <mxGeometry x="10" y="720" width="80" height="40" as="geometry" />
        </mxCell>
        <mxCell id="cLConAzINVmgi7hrMVg2-6" style="edgeStyle=none;shape=connector;rounded=0;hachureGap=4;jiggle=2;curveFitting=1;orthogonalLoop=1;jettySize=auto;html=1;exitX=0;exitY=1;exitDx=0;exitDy=0;entryX=0.5;entryY=0;entryDx=0;entryDy=0;labelBackgroundColor=default;strokeColor=default;fontFamily=Architects Daughter;fontSource=https%3A%2F%2Ffonts.googleapis.com%2Fcss%3Ffamily%3DArchitects%2BDaughter;fontSize=16;fontColor=default;endArrow=none;endFill=0;" parent="1" source="cLConAzINVmgi7hrMVg2-5" target="81ppOUsdeJMzFXG5UMjV-6" edge="1">
          <mxGeometry relative="1" as="geometry" />
        </mxCell>
        <mxCell id="cLConAzINVmgi7hrMVg2-5" value="hqAddress" style="ellipse;whiteSpace=wrap;html=1;rounded=0;hachureGap=4;curveFitting=1;strokeColor=default;fontFamily=Courier New;fontSize=12;fontColor=default;fillColor=default;" parent="1" vertex="1">
          <mxGeometry x="90" y="125" width="80" height="40" as="geometry" />
        </mxCell>
        <mxCell id="cLConAzINVmgi7hrMVg2-9" style="edgeStyle=none;shape=connector;rounded=0;hachureGap=4;jiggle=2;curveFitting=1;orthogonalLoop=1;jettySize=auto;html=1;exitX=0;exitY=1;exitDx=0;exitDy=0;entryX=1;entryY=0.5;entryDx=0;entryDy=0;labelBackgroundColor=default;strokeColor=default;fontFamily=Architects Daughter;fontSource=https%3A%2F%2Ffonts.googleapis.com%2Fcss%3Ffamily%3DArchitects%2BDaughter;fontSize=16;fontColor=default;endArrow=none;endFill=0;" parent="1" source="cLConAzINVmgi7hrMVg2-7" target="81ppOUsdeJMzFXG5UMjV-6" edge="1">
          <mxGeometry relative="1" as="geometry" />
        </mxCell>
        <mxCell id="cLConAzINVmgi7hrMVg2-7" value="hqPostalCode" style="ellipse;whiteSpace=wrap;html=1;rounded=0;hachureGap=4;curveFitting=1;strokeColor=default;fontFamily=Courier New;fontSize=12;fontColor=default;fillColor=default;" parent="1" vertex="1">
          <mxGeometry x="165" y="150" width="95" height="40" as="geometry" />
        </mxCell>
        <mxCell id="cLConAzINVmgi7hrMVg2-10" value="hqCity" style="ellipse;whiteSpace=wrap;html=1;rounded=0;hachureGap=4;curveFitting=1;strokeColor=default;fontFamily=Courier New;fontSize=12;fontColor=default;fillColor=default;" parent="1" vertex="1">
          <mxGeometry x="10" y="235" width="60" height="30" as="geometry" />
        </mxCell>
        <mxCell id="cLConAzINVmgi7hrMVg2-13" style="edgeStyle=none;shape=connector;rounded=0;hachureGap=4;jiggle=2;curveFitting=1;orthogonalLoop=1;jettySize=auto;html=1;exitX=0.5;exitY=1;exitDx=0;exitDy=0;entryX=0.5;entryY=0;entryDx=0;entryDy=0;labelBackgroundColor=default;strokeColor=default;fontFamily=Architects Daughter;fontSource=https%3A%2F%2Ffonts.googleapis.com%2Fcss%3Ffamily%3DArchitects%2BDaughter;fontSize=16;fontColor=default;endArrow=none;endFill=0;" parent="1" source="cLConAzINVmgi7hrMVg2-12" target="81ppOUsdeJMzFXG5UMjV-4" edge="1">
          <mxGeometry relative="1" as="geometry" />
        </mxCell>
        <mxCell id="cLConAzINVmgi7hrMVg2-12" value="&lt;span style=&quot;font-size: 12px;&quot;&gt;bestseller&lt;/span&gt;" style="ellipse;whiteSpace=wrap;html=1;rounded=0;hachureGap=4;curveFitting=1;strokeColor=default;fontFamily=Courier New;fontSize=16;fontColor=default;fillColor=default;" parent="1" vertex="1">
          <mxGeometry x="330" y="165" width="90" height="30" as="geometry" />
        </mxCell>
        <mxCell id="cLConAzINVmgi7hrMVg2-15" style="edgeStyle=none;shape=connector;rounded=0;hachureGap=4;jiggle=2;curveFitting=1;orthogonalLoop=1;jettySize=auto;html=1;exitX=0;exitY=1;exitDx=0;exitDy=0;entryX=0.75;entryY=0;entryDx=0;entryDy=0;labelBackgroundColor=default;strokeColor=default;fontFamily=Architects Daughter;fontSource=https%3A%2F%2Ffonts.googleapis.com%2Fcss%3Ffamily%3DArchitects%2BDaughter;fontSize=16;fontColor=default;endArrow=none;endFill=0;" parent="1" source="cLConAzINVmgi7hrMVg2-14" target="81ppOUsdeJMzFXG5UMjV-4" edge="1">
          <mxGeometry relative="1" as="geometry" />
        </mxCell>
        <mxCell id="cLConAzINVmgi7hrMVg2-14" value="&lt;span style=&quot;font-size: 12px;&quot;&gt;rating&lt;/span&gt;" style="ellipse;whiteSpace=wrap;html=1;rounded=0;hachureGap=4;curveFitting=1;strokeColor=default;fontFamily=Courier New;fontSize=16;fontColor=default;fillColor=default;" parent="1" vertex="1">
          <mxGeometry x="435" y="170" width="65" height="30" as="geometry" />
        </mxCell>
        <mxCell id="cLConAzINVmgi7hrMVg2-17" style="edgeStyle=none;shape=connector;rounded=0;hachureGap=4;jiggle=2;curveFitting=1;orthogonalLoop=1;jettySize=auto;html=1;exitX=1;exitY=0.5;exitDx=0;exitDy=0;labelBackgroundColor=default;strokeColor=default;fontFamily=Architects Daughter;fontSource=https%3A%2F%2Ffonts.googleapis.com%2Fcss%3Ffamily%3DArchitects%2BDaughter;fontSize=16;fontColor=default;endArrow=none;endFill=0;" parent="1" source="cLConAzINVmgi7hrMVg2-16" target="81ppOUsdeJMzFXG5UMjV-14" edge="1">
          <mxGeometry relative="1" as="geometry" />
        </mxCell>
        <mxCell id="cLConAzINVmgi7hrMVg2-16" value="&lt;span style=&quot;font-size: 12px;&quot;&gt;frequency&lt;/span&gt;" style="ellipse;whiteSpace=wrap;html=1;rounded=0;hachureGap=4;curveFitting=1;strokeColor=default;fontFamily=Courier New;fontSize=16;fontColor=default;fillColor=default;" parent="1" vertex="1">
          <mxGeometry x="100" y="512.5" width="75" height="40" as="geometry" />
        </mxCell>
        <mxCell id="cLConAzINVmgi7hrMVg2-21" style="edgeStyle=none;shape=connector;rounded=0;hachureGap=4;jiggle=2;curveFitting=1;orthogonalLoop=1;jettySize=auto;html=1;exitX=0.5;exitY=1;exitDx=0;exitDy=0;labelBackgroundColor=default;strokeColor=default;fontFamily=Architects Daughter;fontSource=https%3A%2F%2Ffonts.googleapis.com%2Fcss%3Ffamily%3DArchitects%2BDaughter;fontSize=16;fontColor=default;endArrow=none;endFill=0;" parent="1" source="cLConAzINVmgi7hrMVg2-18" target="81ppOUsdeJMzFXG5UMjV-14" edge="1">
          <mxGeometry relative="1" as="geometry" />
        </mxCell>
        <mxCell id="cLConAzINVmgi7hrMVg2-18" value="losses" style="ellipse;whiteSpace=wrap;html=1;rounded=0;hachureGap=4;curveFitting=1;strokeColor=default;fontFamily=Courier New;fontSize=12;fontColor=default;fillColor=default;" parent="1" vertex="1">
          <mxGeometry x="210" y="462.5" width="55" height="30" as="geometry" />
        </mxCell>
      </root>
    </mxGraphModel>
  </diagram>
</mxfile>
